<?xml version="1.0"?>
<svg xmlns="http://www.w3.org/2000/svg" viewBox="0 0 32 32">
    <path style="text-indent:0;text-align:start;line-height:normal;text-transform:none;block-progression:tb;-inkscape-font-specification:Sans" d="M 16 4 C 9.3844277 4 4 9.3844277 4 16 C 4 22.615572 9.3844277 28 16 28 C 22.615572 28 28 22.615572 28 16 C 28 9.3844277 22.615572 4 16 4 z M 16 6 C 21.534692 6 26 10.465308 26 16 C 26 21.534692 21.534692 26 16 26 C 10.465308 26 6 21.534692 6 16 C 6 10.465308 10.465308 6 16 6 z M 11.5 12 C 10.671573 12 10 12.671573 10 13.5 C 10 14.328427 10.671573 15 11.5 15 C 12.328427 15 13 14.328427 13 13.5 C 13 12.671573 12.328427 12 11.5 12 z M 18 13 L 18 15 L 23 15 L 23 13 L 18 13 z M 20.96875 17.03125 C 20.96875 18.714448 20.291236 19.883116 19.3125 20.71875 C 18.333764 21.554384 17.033739 22 16 22 C 13.880556 22 12.437943 21.138829 11.3125 20.03125 L 9.90625 21.46875 C 11.300807 22.841171 13.319444 24 16 24 C 17.556261 24 19.261236 23.414366 20.625 22.25 C 21.988764 21.085634 22.96875 19.288052 22.96875 17.03125 L 20.96875 17.03125 z" overflow="visible" font-family="Sans"/>
</svg>
